<svg xmlns="http://www.w3.org/2000/svg" xmlns:xlink="http://www.w3.org/1999/xlink" width="200" zoomAndPan="magnify" viewBox="0 0 150 74.999997" height="100" preserveAspectRatio="xMidYMid meet" version="1.0"><defs><g/><clipPath id="07d97a429a"><path d="M 5.660156 10.039062 L 37 10.039062 L 37 64.789062 L 5.660156 64.789062 Z M 5.660156 10.039062 " clip-rule="nonzero"/></clipPath></defs><g clip-path="url(#07d97a429a)"><path fill="#d9d9d9" d="M 5.660156 10.046875 L 8.007812 21.632812 L 13.457031 21.632812 L 5.660156 43.480469 C 12.414062 49.027344 18.179688 55.613281 18.179688 64.949219 L 20.527344 64.949219 L 20.527344 39.253906 C 20.289062 39.132812 20.097656 38.964844 19.957031 38.753906 C 19.820312 38.542969 19.75 38.3125 19.75 38.070312 C 19.75 37.886719 19.789062 37.710938 19.867188 37.542969 C 19.949219 37.375 20.058594 37.226562 20.207031 37.097656 C 20.355469 36.96875 20.523438 36.871094 20.714844 36.800781 C 20.90625 36.730469 21.105469 36.695312 21.3125 36.695312 C 21.519531 36.695312 21.71875 36.730469 21.914062 36.800781 C 22.105469 36.871094 22.273438 36.96875 22.417969 37.097656 C 22.566406 37.226562 22.679688 37.375 22.757812 37.542969 C 22.839844 37.710938 22.878906 37.886719 22.878906 38.070312 C 22.878906 38.3125 22.808594 38.542969 22.667969 38.753906 C 22.53125 38.964844 22.339844 39.132812 22.097656 39.253906 L 22.097656 64.949219 L 24.449219 64.949219 C 24.449219 55.121094 30.269531 48.640625 36.964844 43.042969 L 29.167969 21.136719 L 34.648438 21.136719 L 37 10.046875 Z M 5.660156 10.046875 " fill-opacity="1" fill-rule="nonzero"/></g><g fill="#000000" fill-opacity="1"><g transform="translate(4.350007, 66.366826)"><g><path d="M 9.453125 -12.953125 L 12 -12.953125 L 12 0 L 9.453125 0 L 9.453125 -5.296875 L 3.953125 -5.296875 L 3.953125 0 L 1.421875 0 L 1.421875 -12.953125 L 3.953125 -12.953125 L 3.953125 -7.65625 L 9.453125 -7.65625 Z M 9.453125 -12.953125 "/></g></g></g><g fill="#000000" fill-opacity="1"><g transform="translate(17.756913, 66.366826)"><g><path d="M 8.90625 -5.296875 C 8.863281 -6.222656 8.625 -6.957031 8.1875 -7.5 C 7.75 -8.039062 7.050781 -8.3125 6.09375 -8.3125 C 5.0625 -8.3125 4.316406 -8.015625 3.859375 -7.421875 C 3.410156 -6.828125 3.1875 -6.117188 3.1875 -5.296875 C 3.1875 -4.742188 3.28125 -4.238281 3.46875 -3.78125 C 3.664062 -3.320312 3.976562 -2.953125 4.40625 -2.671875 C 4.84375 -2.398438 5.40625 -2.265625 6.09375 -2.265625 C 6.96875 -2.265625 7.65625 -2.507812 8.15625 -3 C 8.65625 -3.5 8.90625 -4.265625 8.90625 -5.296875 Z M 12.296875 0 L 9.75 0 C 9.632812 -0.28125 9.535156 -0.554688 9.453125 -0.828125 C 9.367188 -1.097656 9.289062 -1.363281 9.21875 -1.625 C 8.863281 -1.101562 8.398438 -0.679688 7.828125 -0.359375 C 7.265625 -0.046875 6.585938 0.109375 5.796875 0.109375 C 4.796875 0.109375 3.90625 -0.128906 3.125 -0.609375 C 2.351562 -1.085938 1.75 -1.738281 1.3125 -2.5625 C 0.875 -3.394531 0.65625 -4.3125 0.65625 -5.3125 C 0.65625 -6.300781 0.867188 -7.195312 1.296875 -8 C 1.734375 -8.8125 2.351562 -9.460938 3.15625 -9.953125 C 3.96875 -10.441406 4.945312 -10.6875 6.09375 -10.6875 C 7.695312 -10.6875 8.972656 -10.195312 9.921875 -9.21875 C 10.878906 -8.25 11.390625 -6.941406 11.453125 -5.296875 C 11.460938 -4.941406 11.472656 -4.476562 11.484375 -3.90625 C 11.503906 -3.34375 11.566406 -2.722656 11.671875 -2.046875 C 11.773438 -1.367188 11.984375 -0.6875 12.296875 0 Z M 12.296875 0 "/></g></g></g><g fill="#000000" fill-opacity="1"><g transform="translate(30.465979, 66.366826)"><g><path d="M 3.8125 -5.296875 L 3.8125 0 L 1.265625 0 L 1.265625 -5.265625 C 1.265625 -6.265625 1.472656 -7.171875 1.890625 -7.984375 C 2.316406 -8.804688 2.941406 -9.460938 3.765625 -9.953125 C 4.585938 -10.441406 5.578125 -10.6875 6.734375 -10.6875 C 6.878906 -10.6875 7.03125 -10.675781 7.1875 -10.65625 C 7.34375 -10.632812 7.5 -10.609375 7.65625 -10.578125 L 7.65625 -8.125 C 7.519531 -8.15625 7.382812 -8.179688 7.25 -8.203125 C 7.125 -8.222656 6.992188 -8.234375 6.859375 -8.234375 C 6.097656 -8.234375 5.492188 -8.101562 5.046875 -7.84375 C 4.597656 -7.582031 4.28125 -7.226562 4.09375 -6.78125 C 3.90625 -6.332031 3.8125 -5.835938 3.8125 -5.296875 Z M 3.8125 -5.296875 "/></g></g></g><g fill="#000000" fill-opacity="1"><g transform="translate(38.54396, 66.366826)"><g><path d="M 0.78125 -0.34375 L 0.78125 -2.734375 C 1.101562 -2.648438 1.507812 -2.570312 2 -2.5 C 2.5 -2.4375 3.015625 -2.390625 3.546875 -2.359375 C 4.078125 -2.328125 4.550781 -2.3125 4.96875 -2.3125 C 5.800781 -2.3125 6.398438 -2.375 6.765625 -2.5 C 7.128906 -2.632812 7.3125 -2.851562 7.3125 -3.15625 C 7.3125 -3.289062 7.25 -3.40625 7.125 -3.5 C 7 -3.601562 6.742188 -3.703125 6.359375 -3.796875 C 5.984375 -3.898438 5.410156 -4.023438 4.640625 -4.171875 C 4.367188 -4.222656 4.023438 -4.296875 3.609375 -4.390625 C 3.191406 -4.484375 2.769531 -4.632812 2.34375 -4.84375 C 1.925781 -5.050781 1.578125 -5.359375 1.296875 -5.765625 C 1.015625 -6.171875 0.875 -6.703125 0.875 -7.359375 C 0.875 -8.117188 1.066406 -8.742188 1.453125 -9.234375 C 1.835938 -9.722656 2.367188 -10.085938 3.046875 -10.328125 C 3.734375 -10.566406 4.507812 -10.6875 5.375 -10.6875 C 5.726562 -10.6875 6.128906 -10.664062 6.578125 -10.625 C 7.023438 -10.59375 7.484375 -10.539062 7.953125 -10.46875 C 8.421875 -10.394531 8.835938 -10.3125 9.203125 -10.21875 L 9.203125 -7.828125 C 8.929688 -7.910156 8.5625 -7.984375 8.09375 -8.046875 C 7.632812 -8.109375 7.15625 -8.15625 6.65625 -8.1875 C 6.15625 -8.226562 5.703125 -8.25 5.296875 -8.25 C 4.554688 -8.25 4.035156 -8.175781 3.734375 -8.03125 C 3.441406 -7.894531 3.296875 -7.703125 3.296875 -7.453125 C 3.296875 -7.179688 3.46875 -6.984375 3.8125 -6.859375 C 4.164062 -6.734375 4.789062 -6.578125 5.6875 -6.390625 C 6.382812 -6.265625 7.039062 -6.101562 7.65625 -5.90625 C 8.28125 -5.71875 8.785156 -5.425781 9.171875 -5.03125 C 9.554688 -4.632812 9.75 -4.050781 9.75 -3.28125 C 9.75 -2.488281 9.53125 -1.835938 9.09375 -1.328125 C 8.65625 -0.828125 8.066406 -0.457031 7.328125 -0.21875 C 6.585938 0.0078125 5.757812 0.125 4.84375 0.125 C 4.476562 0.125 4.050781 0.101562 3.5625 0.0625 C 3.070312 0.03125 2.582031 -0.015625 2.09375 -0.078125 C 1.613281 -0.148438 1.175781 -0.238281 0.78125 -0.34375 Z M 0.78125 -0.34375 "/></g></g></g><g fill="#000000" fill-opacity="1"><g transform="translate(48.948048, 66.366826)"><g><path d="M 3.8125 -5.296875 L 3.8125 0 L 1.265625 0 L 1.265625 -14.8125 L 3.8125 -14.8125 L 3.8125 -9.375 C 4.164062 -9.78125 4.59375 -10.097656 5.09375 -10.328125 C 5.601562 -10.566406 6.179688 -10.6875 6.828125 -10.6875 C 7.804688 -10.6875 8.65625 -10.445312 9.375 -9.96875 C 10.09375 -9.488281 10.648438 -8.835938 11.046875 -8.015625 C 11.441406 -7.203125 11.640625 -6.296875 11.640625 -5.296875 L 11.640625 0 L 9.09375 0 L 9.09375 -5.296875 C 9.09375 -6.191406 8.894531 -6.914062 8.5 -7.46875 C 8.101562 -8.03125 7.457031 -8.3125 6.5625 -8.3125 C 5.65625 -8.3125 4.96875 -8.03125 4.5 -7.46875 C 4.039062 -6.90625 3.8125 -6.179688 3.8125 -5.296875 Z M 3.8125 -5.296875 "/></g></g></g><g fill="#000000" fill-opacity="1"><g transform="translate(61.678257, 66.366826)"><g><path d="M 3.8125 -10.578125 L 3.8125 0 L 1.265625 0 L 1.265625 -10.578125 Z M 2.53125 -11.78125 C 2.03125 -11.78125 1.632812 -11.941406 1.34375 -12.265625 C 1.050781 -12.585938 0.90625 -12.96875 0.90625 -13.40625 C 0.90625 -13.863281 1.050781 -14.242188 1.34375 -14.546875 C 1.632812 -14.859375 2.03125 -15.015625 2.53125 -15.015625 C 3.039062 -15.015625 3.4375 -14.851562 3.71875 -14.53125 C 4 -14.21875 4.140625 -13.84375 4.140625 -13.40625 C 4.140625 -12.957031 4 -12.570312 3.71875 -12.25 C 3.4375 -11.9375 3.039062 -11.78125 2.53125 -11.78125 Z M 2.53125 -11.78125 "/></g></g></g><g fill="#000000" fill-opacity="1"><g transform="translate(66.75342, 66.366826)"><g><path d="M 6.921875 -10.21875 L 6.921875 -7.84375 L 3.640625 -7.84375 L 3.640625 -5.296875 C 3.640625 -4.398438 3.867188 -3.671875 4.328125 -3.109375 C 4.796875 -2.546875 5.507812 -2.265625 6.46875 -2.265625 C 6.6875 -2.265625 6.863281 -2.273438 7 -2.296875 C 7.144531 -2.328125 7.285156 -2.351562 7.421875 -2.375 L 7.421875 0 C 7.242188 0.0078125 7.09375 0.03125 6.96875 0.0625 C 6.851562 0.09375 6.660156 0.109375 6.390625 0.109375 C 5.304688 0.109375 4.367188 -0.128906 3.578125 -0.609375 C 2.785156 -1.085938 2.171875 -1.734375 1.734375 -2.546875 C 1.304688 -3.367188 1.09375 -4.285156 1.09375 -5.296875 L 1.09375 -13.109375 L 3.640625 -13.109375 L 3.640625 -10.21875 Z M 6.921875 -10.21875 "/></g></g></g><g fill="#000000" fill-opacity="1"><g transform="translate(74.958275, 66.366826)"><g><path d="M 3.15625 -8.53125 L 1.78125 -8.53125 C 2.09375 -9.070312 2.351562 -9.609375 2.5625 -10.140625 C 2.78125 -10.679688 2.882812 -11.203125 2.875 -11.703125 C 2.4375 -11.742188 2.09375 -11.914062 1.84375 -12.21875 C 1.601562 -12.519531 1.484375 -12.875 1.484375 -13.28125 C 1.484375 -13.738281 1.625 -14.125 1.90625 -14.4375 C 2.195312 -14.757812 2.601562 -14.921875 3.125 -14.921875 C 3.625 -14.921875 4.015625 -14.765625 4.296875 -14.453125 C 4.578125 -14.140625 4.71875 -13.6875 4.71875 -13.09375 C 4.71875 -12.675781 4.648438 -12.179688 4.515625 -11.609375 C 4.378906 -11.035156 4.191406 -10.46875 3.953125 -9.90625 C 3.710938 -9.351562 3.445312 -8.894531 3.15625 -8.53125 Z M 3.15625 -8.53125 "/></g></g></g><g fill="#000000" fill-opacity="1"><g transform="translate(81.154213, 66.366826)"><g><path d="M 0.78125 -0.34375 L 0.78125 -2.734375 C 1.101562 -2.648438 1.507812 -2.570312 2 -2.5 C 2.5 -2.4375 3.015625 -2.390625 3.546875 -2.359375 C 4.078125 -2.328125 4.550781 -2.3125 4.96875 -2.3125 C 5.800781 -2.3125 6.398438 -2.375 6.765625 -2.5 C 7.128906 -2.632812 7.3125 -2.851562 7.3125 -3.15625 C 7.3125 -3.289062 7.25 -3.40625 7.125 -3.5 C 7 -3.601562 6.742188 -3.703125 6.359375 -3.796875 C 5.984375 -3.898438 5.410156 -4.023438 4.640625 -4.171875 C 4.367188 -4.222656 4.023438 -4.296875 3.609375 -4.390625 C 3.191406 -4.484375 2.769531 -4.632812 2.34375 -4.84375 C 1.925781 -5.050781 1.578125 -5.359375 1.296875 -5.765625 C 1.015625 -6.171875 0.875 -6.703125 0.875 -7.359375 C 0.875 -8.117188 1.066406 -8.742188 1.453125 -9.234375 C 1.835938 -9.722656 2.367188 -10.085938 3.046875 -10.328125 C 3.734375 -10.566406 4.507812 -10.6875 5.375 -10.6875 C 5.726562 -10.6875 6.128906 -10.664062 6.578125 -10.625 C 7.023438 -10.59375 7.484375 -10.539062 7.953125 -10.46875 C 8.421875 -10.394531 8.835938 -10.3125 9.203125 -10.21875 L 9.203125 -7.828125 C 8.929688 -7.910156 8.5625 -7.984375 8.09375 -8.046875 C 7.632812 -8.109375 7.15625 -8.15625 6.65625 -8.1875 C 6.15625 -8.226562 5.703125 -8.25 5.296875 -8.25 C 4.554688 -8.25 4.035156 -8.175781 3.734375 -8.03125 C 3.441406 -7.894531 3.296875 -7.703125 3.296875 -7.453125 C 3.296875 -7.179688 3.46875 -6.984375 3.8125 -6.859375 C 4.164062 -6.734375 4.789062 -6.578125 5.6875 -6.390625 C 6.382812 -6.265625 7.039062 -6.101562 7.65625 -5.90625 C 8.28125 -5.71875 8.785156 -5.425781 9.171875 -5.03125 C 9.554688 -4.632812 9.75 -4.050781 9.75 -3.28125 C 9.75 -2.488281 9.53125 -1.835938 9.09375 -1.328125 C 8.65625 -0.828125 8.066406 -0.457031 7.328125 -0.21875 C 6.585938 0.0078125 5.757812 0.125 4.84375 0.125 C 4.476562 0.125 4.050781 0.101562 3.5625 0.0625 C 3.070312 0.03125 2.582031 -0.015625 2.09375 -0.078125 C 1.613281 -0.148438 1.175781 -0.238281 0.78125 -0.34375 Z M 0.78125 -0.34375 "/></g></g></g><g fill="#000000" fill-opacity="1"><g transform="translate(91.558301, 66.366826)"><g/></g></g><g fill="#000000" fill-opacity="1"><g transform="translate(96.210543, 66.366826)"><g><path d="M 10.328125 -6.625 C 10.828125 -6.3125 11.234375 -5.90625 11.546875 -5.40625 C 11.859375 -4.914062 12.015625 -4.367188 12.015625 -3.765625 C 12.015625 -3.097656 11.832031 -2.476562 11.46875 -1.90625 C 11.113281 -1.34375 10.628906 -0.882812 10.015625 -0.53125 C 9.398438 -0.175781 8.71875 0 7.96875 0 L 1.421875 0 L 1.421875 -12.953125 L 7.546875 -12.953125 C 8.296875 -12.953125 8.976562 -12.773438 9.59375 -12.421875 C 10.207031 -12.066406 10.691406 -11.601562 11.046875 -11.03125 C 11.410156 -10.457031 11.59375 -9.84375 11.59375 -9.1875 C 11.59375 -8.664062 11.476562 -8.1875 11.25 -7.75 C 11.03125 -7.3125 10.722656 -6.9375 10.328125 -6.625 Z M 3.953125 -10.578125 L 3.953125 -7.65625 L 7.546875 -7.65625 C 7.972656 -7.65625 8.332031 -7.796875 8.625 -8.078125 C 8.914062 -8.359375 9.0625 -8.707031 9.0625 -9.125 C 9.0625 -9.53125 8.914062 -9.875 8.625 -10.15625 C 8.332031 -10.4375 7.972656 -10.578125 7.546875 -10.578125 Z M 3.953125 -5.296875 L 3.953125 -2.375 L 7.96875 -2.375 C 8.394531 -2.375 8.753906 -2.515625 9.046875 -2.796875 C 9.335938 -3.078125 9.484375 -3.421875 9.484375 -3.828125 C 9.484375 -4.234375 9.335938 -4.578125 9.046875 -4.859375 C 8.753906 -5.148438 8.394531 -5.296875 7.96875 -5.296875 Z M 3.953125 -5.296875 "/></g></g></g><g fill="#000000" fill-opacity="1"><g transform="translate(109.02534, 66.366826)"><g><path d="M 1.265625 -14.8125 L 3.8125 -14.8125 L 3.8125 0 L 1.265625 0 Z M 1.265625 -14.8125 "/></g></g></g><g fill="#000000" fill-opacity="1"><g transform="translate(114.100503, 66.366826)"><g><path d="M 6.046875 -2.265625 C 7.046875 -2.265625 7.769531 -2.5625 8.21875 -3.15625 C 8.675781 -3.75 8.90625 -4.460938 8.90625 -5.296875 C 8.90625 -6.117188 8.675781 -6.828125 8.21875 -7.421875 C 7.769531 -8.015625 7.046875 -8.3125 6.046875 -8.3125 C 5.046875 -8.3125 4.316406 -8.015625 3.859375 -7.421875 C 3.410156 -6.828125 3.1875 -6.117188 3.1875 -5.296875 C 3.1875 -4.460938 3.410156 -3.75 3.859375 -3.15625 C 4.316406 -2.5625 5.046875 -2.265625 6.046875 -2.265625 Z M 6.046875 0.109375 C 4.921875 0.109375 3.953125 -0.132812 3.140625 -0.625 C 2.328125 -1.113281 1.707031 -1.765625 1.28125 -2.578125 C 0.863281 -3.398438 0.65625 -4.304688 0.65625 -5.296875 C 0.65625 -6.296875 0.863281 -7.195312 1.28125 -8 C 1.707031 -8.8125 2.328125 -9.460938 3.140625 -9.953125 C 3.953125 -10.441406 4.921875 -10.6875 6.046875 -10.6875 C 7.191406 -10.6875 8.164062 -10.441406 8.96875 -9.953125 C 9.769531 -9.460938 10.382812 -8.8125 10.8125 -8 C 11.238281 -7.195312 11.453125 -6.296875 11.453125 -5.296875 C 11.453125 -4.304688 11.238281 -3.398438 10.8125 -2.578125 C 10.382812 -1.765625 9.769531 -1.113281 8.96875 -0.625 C 8.164062 -0.132812 7.191406 0.109375 6.046875 0.109375 Z M 6.046875 0.109375 "/></g></g></g><g fill="#000000" fill-opacity="1"><g transform="translate(126.196317, 66.366826)"><g><path d="M 8.265625 -6.34375 C 8.265625 -6.882812 8.070312 -7.347656 7.6875 -7.734375 C 7.3125 -8.117188 6.695312 -8.3125 5.84375 -8.3125 C 4.976562 -8.3125 4.351562 -8.117188 3.96875 -7.734375 C 3.59375 -7.347656 3.40625 -6.882812 3.40625 -6.34375 C 3.40625 -5.820312 3.59375 -5.363281 3.96875 -4.96875 C 4.351562 -4.570312 4.976562 -4.375 5.84375 -4.375 C 6.695312 -4.375 7.3125 -4.566406 7.6875 -4.953125 C 8.070312 -5.347656 8.265625 -5.8125 8.265625 -6.34375 Z M 7.21875 2.109375 C 7.21875 1.773438 7.109375 1.488281 6.890625 1.25 C 6.679688 1.019531 6.332031 0.90625 5.84375 0.90625 C 5.363281 0.90625 5.015625 1.019531 4.796875 1.25 C 4.578125 1.488281 4.46875 1.773438 4.46875 2.109375 C 4.46875 2.453125 4.578125 2.738281 4.796875 2.96875 C 5.015625 3.207031 5.363281 3.328125 5.84375 3.328125 C 6.332031 3.328125 6.679688 3.207031 6.890625 2.96875 C 7.109375 2.738281 7.21875 2.453125 7.21875 2.109375 Z M 9.546875 2.109375 C 9.546875 2.972656 9.21875 3.703125 8.5625 4.296875 C 7.914062 4.890625 7.007812 5.1875 5.84375 5.1875 C 5.0625 5.1875 4.390625 5.046875 3.828125 4.765625 C 3.273438 4.484375 2.851562 4.109375 2.5625 3.640625 C 2.28125 3.171875 2.140625 2.660156 2.140625 2.109375 C 2.140625 1.453125 2.347656 0.851562 2.765625 0.3125 C 3.191406 -0.21875 3.789062 -0.585938 4.5625 -0.796875 L 4.5625 -2.109375 C 3.382812 -2.347656 2.472656 -2.851562 1.828125 -3.625 C 1.191406 -4.40625 0.875 -5.3125 0.875 -6.34375 C 0.875 -7.144531 1.066406 -7.875 1.453125 -8.53125 C 1.835938 -9.1875 2.40625 -9.707031 3.15625 -10.09375 C 3.90625 -10.488281 4.800781 -10.6875 5.84375 -10.6875 C 6.40625 -10.6875 6.925781 -10.625 7.40625 -10.5 C 7.882812 -10.382812 8.3125 -10.21875 8.6875 -10 C 9.1875 -10.289062 9.664062 -10.457031 10.125 -10.5 C 10.582031 -10.550781 11.085938 -10.578125 11.640625 -10.578125 L 12.015625 -10.578125 L 12.015625 -8.46875 L 11.640625 -8.46875 C 11.410156 -8.46875 11.1875 -8.457031 10.96875 -8.4375 C 10.757812 -8.414062 10.554688 -8.367188 10.359375 -8.296875 C 10.660156 -7.703125 10.8125 -7.050781 10.8125 -6.34375 C 10.8125 -5.332031 10.488281 -4.429688 9.84375 -3.640625 C 9.207031 -2.859375 8.296875 -2.347656 7.109375 -2.109375 L 7.109375 -0.796875 C 7.898438 -0.585938 8.503906 -0.21875 8.921875 0.3125 C 9.335938 0.851562 9.546875 1.453125 9.546875 2.109375 Z M 9.546875 2.109375 "/></g></g></g><g fill="#000000" fill-opacity="1"><g transform="translate(138.397861, 66.366826)"><g><path d="M 0.78125 -0.34375 L 0.78125 -2.734375 C 1.101562 -2.648438 1.507812 -2.570312 2 -2.5 C 2.5 -2.4375 3.015625 -2.390625 3.546875 -2.359375 C 4.078125 -2.328125 4.550781 -2.3125 4.96875 -2.3125 C 5.800781 -2.3125 6.398438 -2.375 6.765625 -2.5 C 7.128906 -2.632812 7.3125 -2.851562 7.3125 -3.15625 C 7.3125 -3.289062 7.25 -3.40625 7.125 -3.5 C 7 -3.601562 6.742188 -3.703125 6.359375 -3.796875 C 5.984375 -3.898438 5.410156 -4.023438 4.640625 -4.171875 C 4.367188 -4.222656 4.023438 -4.296875 3.609375 -4.390625 C 3.191406 -4.484375 2.769531 -4.632812 2.34375 -4.84375 C 1.925781 -5.050781 1.578125 -5.359375 1.296875 -5.765625 C 1.015625 -6.171875 0.875 -6.703125 0.875 -7.359375 C 0.875 -8.117188 1.066406 -8.742188 1.453125 -9.234375 C 1.835938 -9.722656 2.367188 -10.085938 3.046875 -10.328125 C 3.734375 -10.566406 4.507812 -10.6875 5.375 -10.6875 C 5.726562 -10.6875 6.128906 -10.664062 6.578125 -10.625 C 7.023438 -10.59375 7.484375 -10.539062 7.953125 -10.46875 C 8.421875 -10.394531 8.835938 -10.3125 9.203125 -10.21875 L 9.203125 -7.828125 C 8.929688 -7.910156 8.5625 -7.984375 8.09375 -8.046875 C 7.632812 -8.109375 7.15625 -8.15625 6.65625 -8.1875 C 6.15625 -8.226562 5.703125 -8.25 5.296875 -8.25 C 4.554688 -8.25 4.035156 -8.175781 3.734375 -8.03125 C 3.441406 -7.894531 3.296875 -7.703125 3.296875 -7.453125 C 3.296875 -7.179688 3.46875 -6.984375 3.8125 -6.859375 C 4.164062 -6.734375 4.789062 -6.578125 5.6875 -6.390625 C 6.382812 -6.265625 7.039062 -6.101562 7.65625 -5.90625 C 8.28125 -5.71875 8.785156 -5.425781 9.171875 -5.03125 C 9.554688 -4.632812 9.75 -4.050781 9.75 -3.28125 C 9.75 -2.488281 9.53125 -1.835938 9.09375 -1.328125 C 8.65625 -0.828125 8.066406 -0.457031 7.328125 -0.21875 C 6.585938 0.0078125 5.757812 0.125 4.84375 0.125 C 4.476562 0.125 4.050781 0.101562 3.5625 0.0625 C 3.070312 0.03125 2.582031 -0.015625 2.09375 -0.078125 C 1.613281 -0.148438 1.175781 -0.238281 0.78125 -0.34375 Z M 0.78125 -0.34375 "/></g></g></g></svg>